<svg xmlns="http://www.w3.org/2000/svg" viewBox="0 0 720 220" role="img" aria-labelledby="title desc">
  <title id="title">AMALFI Clínica Dental</title>
  <desc id="desc">Logotipo recreado con isotipo de diente y letra A.</desc>
  <defs>
    <linearGradient id="brand" x1="0" y1="0" x2="1" y2="1">
      <stop offset="0" stop-color="#17c7d0"/>
      <stop offset="1" stop-color="#058aa2"/>
    </linearGradient>
  </defs>
  <rect width="720" height="220" rx="0" fill="none"/>
  <g transform="translate(26 22)">
    <circle cx="88" cy="88" r="82" fill="url(#brand)"/>
    <path d="M90 36c17-18 47-11 56 11 11 27-5 52-13 79-7 25-14 40-27 40-11 0-12-20-16-36-3-12-8-20-15-20s-12 8-15 20c-4 16-5 36-16 36-13 0-20-15-27-40-8-27-24-52-13-79 9-22 39-29 56-11 10 10 20 10 30 0Z" fill="none" stroke="#fff" stroke-width="9" stroke-linecap="round" stroke-linejoin="round"/>
    <path d="M54 126 82 55l39 101M68 101h38" fill="none" stroke="#fff" stroke-width="8" stroke-linecap="round" stroke-linejoin="round"/>
  </g>
  <g fill="#048aa0" font-family="Montserrat, Arial, sans-serif">
    <text x="220" y="101" font-size="64" font-weight="800" letter-spacing="0">AMALFI</text>
    <text x="227" y="145" font-size="27" font-weight="700" letter-spacing="0">CLINICA DENTAL</text>
  </g>
</svg>
